
THE DUST BOWL
Premieres November 18 and 19, 2012
8:00ΓÇô10:00 p.m. ET on PBS

CHECK LOCAL LISTINGS

THE DUST BOWL chronicles the worst man-made ecological disaster in American history, in 

which the frenzied wheat boom of the "Great Plow-Up," followed by a decade-long drought 

during the 1930s nearly swept away the breadbasket of the nation. Vivid interviews with 

twenty-six survivors of those hard times, combined with dramatic photographs and seldom 

seen movie footage, bring to life stories of incredible human suffering and equally 

incredible human perseverance. It is also a morality tale about our relationship to the 

land that sustains usΓÇöa lesson we ignore at our peril.						

												

											

Enjoy and please share.										

												

												

TTLTTLTTLTTLTTLTTLTTLTTLTTLTTLTTLTTLTTLTTLTTLTTLTTLTTL						

												

												
The_Dust_Bowl_(part 2)_720p.HDTV.x264_2012-11-19_TTL.mkv
Format                           : Matroska
File size                        : 2.81 GiB
Duration                         : 1h 52mn
Overall bit rate                 : 3 586 Kbps
Writing application              : HandBrake 0.9.5
Writing library                  : libmkv 0.6.4.1

Video
ID                               : 1
Format                           : AVC
Format/Info                      : Advanced Video Codec
Format profile                   : High@L3.1
Format settings, CABAC           : Yes
Format settings, ReFrames        : 4 frames
Muxing mode                      : Container profile=Unknown@3.1
Codec ID                         : V_MPEG4/ISO/AVC
Duration                         : 1h 52mn
Bit rate                         : 3 291 Kbps
Nominal bit rate                 : 3 357 Kbps
Width                            : 1 280 pixels
Height                           : 720 pixels
Display aspect ratio             : 16:9
Frame rate mode                  : Variable
Frame rate                       : 29.970 fps
Resolution                       : 8 bits
Colorimetry                      : 4:2:0
Scan type                        : Progressive
Bits/(Pixel*Frame)               : 0.119
Stream size                      : 2.58 GiB (92%)
Writing library                  : x264 core 112

Audio                            : English
ID                               : 2
Format                           : AC-3
Format/Info                      : Audio Coding 3
Codec ID                         : A_AC3
Duration                         : 1h 52mn
Bit rate mode                    : Constant
Bit rate                         : 224 Kbps
Channel(s)                       : 2 channels
Channel positions                : L R
Sampling rate                    : 48.0 KHz
Stream size                      : 180 MiB (6%)


												

		